<?xml version="1.0" standalone="no"?>
<!DOCTYPE svg PUBLIC "-//W3C//DTD SVG 20010904//EN"
 "http://www.w3.org/TR/2001/REC-SVG-20010904/DTD/svg10.dtd">
<svg version="1.0" xmlns="http://www.w3.org/2000/svg"
 width="260.000000pt" height="260.000000pt" viewBox="0 0 260.000000 260.000000"
 preserveAspectRatio="xMidYMid meet">
<metadata>
Created by potrace 1.14, written by Peter Selinger 2001-2017
</metadata>
<g transform="translate(0.000000,260.000000) scale(0.100000,-0.100000)"
fill="#000000" stroke="none">
<path d="M1157 2499 c-9 -5 -21 -8 -25 -5 -8 5 -130 -19 -162 -31 -8 -3 -22
-7 -30 -9 -9 -2 -54 -19 -101 -38 -175 -70 -350 -198 -456 -333 -15 -20 -33
-41 -39 -47 -15 -15 -114 -174 -114 -182 0 -3 -11 -28 -25 -55 -13 -27 -22
-49 -19 -49 2 0 -2 -15 -10 -34 -8 -19 -12 -37 -8 -40 3 -3 -1 -6 -8 -6 -7 0
-11 -3 -7 -6 3 -3 1 -18 -5 -33 -5 -14 -12 -37 -13 -51 -2 -14 -7 -41 -10 -60
-3 -19 -8 -60 -11 -90 -3 -30 -7 -61 -9 -67 -2 -7 0 -13 6 -13 6 0 7 -5 3 -12
-8 -13 -3 -163 6 -163 1 0 4 -16 6 -35 1 -19 12 -66 23 -105 11 -38 17 -73 15
-77 -3 -4 -1 -8 4 -8 8 0 18 -20 26 -50 4 -18 44 -101 63 -131 12 -20 19 -40
16 -43 -4 -3 -2 -6 3 -6 5 0 20 -18 34 -40 14 -22 28 -40 32 -40 5 0 8 -4 8
-9 0 -18 126 -152 196 -209 45 -37 162 -112 173 -112 6 0 11 -4 11 -8 0 -4 17
-14 38 -21 20 -8 60 -24 87 -36 28 -13 66 -26 85 -30 19 -4 40 -10 45 -13 6
-4 15 -7 20 -8 34 -7 73 -15 95 -19 37 -9 310 -14 310 -6 0 4 15 6 32 6 31 -1
102 14 123 26 6 3 20 4 33 3 12 0 22 3 22 9 0 6 3 8 6 4 4 -3 19 0 35 9 16 8
29 12 29 9 0 -4 12 1 28 9 34 20 85 40 95 38 4 -1 7 2 7 8 0 5 7 10 15 10 8 0
15 5 15 12 0 6 3 8 6 5 7 -7 150 89 190 127 77 72 126 123 141 144 10 13 28
36 40 50 13 15 23 33 23 40 0 6 4 12 8 12 5 0 17 16 28 35 10 19 22 35 27 35
4 0 6 4 2 9 -3 5 2 16 10 25 9 8 15 17 13 18 -4 5 56 143 64 146 5 2 6 8 2 13
-3 5 2 31 11 58 9 27 18 62 19 78 2 15 5 28 6 28 1 0 3 18 4 40 1 22 4 45 7
50 7 12 2 241 -6 275 -3 14 -8 41 -11 60 -8 44 -12 64 -15 70 -1 3 -3 10 -4
15 -2 6 -4 13 -5 18 -1 4 -3 10 -5 15 -3 13 -17 46 -30 77 -8 16 -11 33 -9 37
3 4 1 8 -4 8 -6 0 -13 11 -16 24 -8 31 -82 160 -101 176 -8 7 -15 16 -15 21 0
17 -131 157 -210 225 -84 72 -337 204 -391 204 -10 0 -19 4 -19 8 0 5 -6 9
-12 9 -7 0 -40 6 -73 13 -33 7 -73 14 -88 15 -15 2 -31 5 -34 8 -3 4 -14 2
-24 -4 -14 -7 -19 -6 -19 2 0 8 -4 8 -15 -1 -8 -7 -15 -8 -15 -3 0 11 -109 11
-127 0 -8 -5 -13 -4 -13 2 0 14 -10 13 -33 0z m313 -464 c30 -9 64 -19 75 -22
11 -3 27 -12 36 -19 9 -8 19 -11 22 -7 4 3 7 1 7 -6 0 -7 5 -9 10 -6 6 3 10 1
10 -6 0 -7 3 -10 6 -6 16 15 230 -171 237 -206 1 -7 7 -16 14 -22 16 -14 82
-146 87 -176 3 -13 5 -24 6 -24 2 0 11 -38 13 -60 2 -11 5 -24 9 -30 6 -10 3
-198 -5 -251 -6 -41 -25 -98 -54 -161 -13 -29 -23 -55 -23 -59 1 -3 -8 -14
-19 -23 -11 -10 -18 -20 -15 -23 6 -6 -137 -154 -181 -186 -16 -12 -35 -22
-41 -22 -7 0 -14 -7 -18 -15 -3 -8 -9 -14 -13 -14 -4 1 -26 -6 -48 -16 -22
-10 -42 -19 -45 -20 -3 0 -10 -4 -17 -8 -37 -23 -353 -51 -353 -31 0 5 -15 10
-34 11 -32 1 -117 26 -140 41 -6 4 -13 7 -16 8 -9 1 -65 28 -70 34 -3 3 -23
17 -45 32 -66 45 -175 156 -175 178 0 6 -4 10 -9 10 -10 0 -90 160 -94 188 -1
9 -6 23 -11 30 -4 7 -5 19 -2 27 3 8 2 15 -2 15 -4 0 -9 15 -10 33 -6 120 -7
183 -3 192 3 5 6 21 8 35 3 29 5 40 22 99 13 47 76 182 89 191 5 3 15 15 24
28 19 27 86 100 119 127 56 47 202 125 232 125 7 0 18 5 25 12 7 7 12 9 12 6
0 -3 24 0 53 7 69 17 256 11 327 -10z"/>
<path d="M1257 1734 c-1 -1 -18 -3 -37 -5 -19 -2 -41 -7 -47 -12 -7 -5 -13 -7
-13 -3 0 3 -24 -6 -52 -20 -49 -25 -147 -109 -148 -126 0 -4 -8 -17 -17 -28
-10 -11 -18 -24 -18 -28 0 -4 -4 -13 -8 -19 -10 -17 -18 -49 -22 -93 -2 -19
-4 -37 -5 -40 -10 -27 17 -159 38 -182 8 -10 12 -18 8 -18 -4 0 5 -17 21 -37
27 -38 80 -93 89 -93 3 0 14 -9 26 -20 12 -10 25 -17 30 -14 4 3 8 1 8 -5 0
-5 15 -13 33 -16 17 -4 37 -11 42 -15 6 -4 32 -8 59 -9 27 -1 52 -2 55 -3 3 0
8 1 11 2 3 1 19 3 35 4 17 2 57 14 90 26 71 27 161 111 195 180 12 25 26 53
31 62 5 10 6 24 3 33 -3 8 -2 15 3 15 15 0 7 141 -11 197 -20 60 -63 125 -113
170 -45 39 -131 83 -178 89 -37 5 -105 10 -108 8z"/>
</g>
</svg>
