<?xml version="1.0" standalone="no"?>
<!DOCTYPE svg PUBLIC "-//W3C//DTD SVG 20010904//EN"
 "http://www.w3.org/TR/2001/REC-SVG-20010904/DTD/svg10.dtd">
<svg version="1.0" xmlns="http://www.w3.org/2000/svg"
 width="264.000000pt" height="264.000000pt" viewBox="0 0 264.000000 264.000000"
 preserveAspectRatio="xMidYMid meet">
<metadata>
Created by potrace 1.14, written by Peter Selinger 2001-2017
</metadata>
<g transform="translate(0.000000,264.000000) scale(0.100000,-0.100000)"
fill="#000000" stroke="none">
<path d="M1268 2555 c-1 -2 -41 -6 -88 -9 -47 -3 -94 -8 -105 -10 -11 -2 -28
-5 -38 -5 -10 -1 -16 -5 -13 -9 2 -4 -7 -7 -20 -7 -14 1 -67 -13 -117 -30
-120 -42 -128 -46 -121 -56 3 -5 -3 -6 -12 -2 -13 5 -15 3 -9 -7 5 -8 4 -11
-3 -6 -13 8 -63 -14 -56 -25 3 -5 -1 -6 -8 -4 -8 3 -24 -4 -36 -15 -12 -11
-24 -20 -27 -20 -15 1 -54 -34 -48 -43 3 -6 1 -7 -5 -3 -7 4 -12 2 -12 -5 0
-7 -3 -9 -7 -6 -9 10 -34 -14 -26 -26 3 -6 1 -7 -6 -3 -14 9 -98 -71 -93 -88
2 -6 0 -8 -4 -4 -10 11 -35 -12 -27 -25 3 -6 1 -7 -5 -3 -11 6 -38 -31 -34
-46 1 -5 -4 -7 -11 -5 -6 1 -11 -6 -11 -16 1 -10 0 -16 -3 -13 -9 9 -63 -58
-58 -72 3 -7 0 -10 -5 -7 -5 3 -12 -6 -16 -20 -3 -14 -10 -25 -14 -25 -7 0
-22 -32 -23 -50 0 -3 -7 -11 -14 -18 -7 -8 -11 -18 -8 -23 4 -5 3 -9 -2 -9 -8
0 -32 -47 -37 -73 -2 -6 -8 -25 -15 -40 -6 -16 -9 -33 -5 -38 3 -5 0 -9 -7 -9
-7 0 -9 -10 -7 -25 3 -13 2 -22 -2 -20 -11 7 -27 -80 -36 -190 -7 -82 -4 -259
4 -264 4 -4 8 -28 9 -55 1 -27 6 -52 10 -55 5 -3 9 -19 10 -35 1 -16 5 -37 9
-45 4 -9 8 -20 9 -26 12 -49 39 -114 46 -109 5 3 6 -2 3 -10 -3 -9 -1 -16 6
-16 6 0 9 -4 5 -9 -3 -5 0 -15 7 -23 7 -7 14 -18 15 -23 4 -24 50 -94 57 -88
4 5 6 1 4 -8 -4 -19 72 -120 85 -112 6 3 7 1 3 -5 -3 -6 4 -18 16 -26 12 -9
19 -16 14 -16 -5 0 -3 -7 4 -15 7 -8 17 -12 23 -8 5 3 7 1 4 -4 -8 -13 17 -36
28 -25 5 4 5 2 1 -5 -6 -11 45 -58 64 -58 5 0 12 -4 17 -9 5 -5 3 -6 -4 -2
-31 18 -8 -6 40 -40 67 -49 113 -75 121 -67 3 4 6 1 6 -5 0 -12 108 -68 123
-64 4 1 7 -3 7 -10 0 -6 3 -8 7 -5 3 4 11 2 18 -3 6 -5 20 -11 31 -13 10 -2
33 -10 49 -17 17 -6 41 -13 55 -15 14 -1 34 -6 45 -11 11 -5 41 -9 67 -9 25 0
44 -3 41 -8 -2 -4 24 -6 59 -5 35 1 69 -1 76 -6 7 -4 21 -4 32 -1 11 4 51 8
88 10 78 4 152 14 167 23 5 3 16 7 25 8 20 3 55 12 55 14 0 1 8 3 17 5 41 8
88 27 83 35 -3 4 4 6 15 3 12 -3 20 0 20 8 0 7 3 10 6 6 10 -9 124 55 117 66
-3 6 -1 7 5 3 14 -9 84 33 75 47 -3 6 -1 7 6 3 15 -10 43 13 34 27 -4 6 -1 7
6 2 13 -8 64 33 56 45 -3 4 3 7 13 6 10 0 16 5 14 14 -2 8 0 12 4 8 10 -11 35
12 27 25 -3 5 -1 7 4 4 12 -7 46 26 38 36 -3 4 -2 5 2 2 11 -8 33 16 33 37 0
10 4 17 9 14 5 -3 14 1 21 9 7 8 9 15 5 15 -5 0 2 9 14 19 14 12 20 25 15 32
-4 7 -3 9 3 6 15 -9 36 19 27 35 -4 7 -3 10 1 5 10 -8 46 43 39 55 -3 4 -1 8
4 8 9 0 36 53 33 65 -1 3 5 13 14 21 8 9 13 20 10 25 -4 5 -2 9 4 9 8 0 24 49
22 65 -1 3 5 18 13 34 17 32 29 82 30 123 1 14 5 24 10 21 5 -3 7 11 4 31 -2
20 0 36 4 36 5 0 8 26 6 58 -1 31 2 68 6 81 5 13 4 21 0 18 -5 -3 -9 39 -10
93 -1 54 -5 107 -9 117 -5 10 -7 26 -6 37 2 12 -1 16 -10 11 -8 -5 -10 -4 -5
3 9 15 -4 83 -14 77 -5 -3 -6 5 -2 17 4 16 2 19 -8 13 -8 -5 -11 -4 -6 3 10
16 -4 63 -17 55 -5 -3 -7 -1 -4 4 9 14 -27 95 -38 85 -5 -4 -5 -2 -2 5 9 15
-2 45 -14 37 -5 -3 -6 1 -3 9 3 8 -2 20 -11 27 -8 7 -15 19 -15 26 0 8 -4 14
-10 14 -5 0 -9 3 -8 8 4 15 -23 52 -34 46 -6 -4 -8 -3 -5 3 9 14 -61 105 -74
97 -5 -3 -8 -1 -7 4 5 16 -42 73 -54 66 -6 -4 -8 -3 -5 3 9 14 -19 37 -34 27
-7 -4 -9 -3 -6 3 8 13 -27 46 -38 36 -4 -5 -5 -2 -1 5 4 7 0 15 -10 19 -10 3
-25 14 -35 22 -40 36 -50 42 -61 35 -7 -4 -8 -3 -4 4 8 14 -30 36 -46 26 -6
-4 -8 -3 -5 3 3 5 -7 17 -24 27 -16 9 -29 14 -29 11 0 -4 -7 1 -16 9 -8 9 -19
14 -24 11 -5 -3 -10 0 -12 6 -2 6 -15 12 -30 12 -14 1 -24 4 -22 7 7 7 -87 41
-97 35 -5 -4 -9 -1 -9 6 0 7 -10 9 -25 7 -13 -3 -22 -2 -20 2 7 11 -68 25
-195 36 -30 2 -69 6 -87 8 -17 3 -33 3 -35 1z m149 -498 c17 -1 29 -6 26 -11
-3 -5 6 -7 21 -4 14 3 26 2 26 -1 0 -12 69 -33 81 -25 7 4 9 3 6 -3 -6 -10 5
-16 58 -34 6 -1 19 -11 30 -21 10 -10 25 -16 33 -13 7 2 11 1 8 -4 -8 -13 21
-34 35 -25 7 4 9 3 6 -4 -8 -12 51 -65 64 -57 5 4 6 0 3 -8 -3 -8 7 -25 23
-38 15 -13 34 -36 42 -51 8 -15 18 -25 23 -22 5 3 7 2 6 -3 -4 -16 14 -53 23
-48 5 3 6 -2 2 -11 -5 -13 -3 -15 7 -9 8 5 11 4 7 -3 -8 -12 2 -44 12 -38 3 2
7 -8 8 -22 0 -15 6 -28 12 -30 5 -2 8 -9 5 -17 -3 -7 -1 -16 5 -19 6 -4 8 -13
5 -20 -3 -8 -1 -17 4 -20 6 -3 8 -16 4 -28 -4 -16 -2 -19 8 -13 8 5 11 4 7 -2
-3 -5 -7 -65 -8 -133 -1 -68 -5 -133 -9 -144 -16 -41 -35 -111 -32 -118 1 -5
-3 -8 -9 -8 -5 0 -7 -4 -4 -10 3 -5 1 -10 -6 -10 -6 0 -9 -8 -6 -20 3 -11 1
-18 -4 -15 -9 6 -41 -49 -34 -59 3 -3 2 -4 -2 -1 -9 7 -43 -47 -36 -58 3 -6 2
-7 -4 -4 -14 9 -57 -39 -48 -53 3 -6 3 -10 -2 -9 -22 4 -34 -2 -27 -13 4 -7 3
-10 -1 -5 -11 9 -46 -23 -39 -35 3 -4 2 -8 -3 -7 -20 3 -34 -2 -28 -11 4 -6 3
-9 -2 -8 -12 4 -83 -34 -83 -44 0 -5 -7 -8 -15 -8 -9 0 -30 -8 -48 -17 -18 -9
-35 -18 -39 -19 -5 -1 -9 -2 -10 -4 -2 -1 -10 -3 -18 -5 -8 -2 -26 -7 -40 -10
-48 -12 -76 -14 -180 -14 -115 0 -146 3 -172 14 -10 4 -25 4 -34 1 -8 -3 -12
-2 -9 4 3 6 1 11 -4 11 -21 3 -26 4 -38 12 -7 5 -17 5 -23 2 -5 -3 -10 -2 -10
2 0 8 -76 50 -98 54 -4 1 -12 9 -18 17 -7 9 -16 12 -25 7 -8 -5 -11 -5 -7 0
10 11 -43 56 -56 48 -6 -3 -8 -2 -3 2 10 11 -33 56 -46 48 -6 -3 -7 -1 -3 6 4
6 0 14 -8 17 -9 3 -13 10 -10 15 3 5 -1 12 -9 15 -9 3 -21 19 -27 35 -7 16
-17 26 -23 22 -6 -3 -7 -1 -3 5 8 14 -18 55 -28 45 -4 -4 -4 1 0 11 5 13 4 17
-3 13 -6 -4 -11 -1 -10 6 1 32 -4 48 -13 42 -5 -3 -7 0 -4 8 2 7 0 27 -7 43
-6 16 -13 40 -15 54 -2 14 -7 36 -10 50 -9 35 -8 167 1 220 11 67 12 73 24
103 6 16 9 33 5 38 -3 5 0 9 6 9 7 0 10 6 8 12 -3 7 2 19 9 27 8 7 12 20 9 28
-3 8 -1 11 4 8 8 -5 15 9 8 18 -1 1 6 11 15 22 9 11 18 24 20 29 1 5 16 25 34
44 18 19 29 40 26 45 -3 6 -1 7 5 3 11 -7 36 27 26 37 -3 3 3 4 13 4 10 -1 17
4 15 11 -1 6 4 11 10 10 7 -2 12 3 10 10 -1 6 1 11 5 10 16 -3 43 15 36 25 -3
5 -1 7 4 4 6 -4 22 2 36 13 14 11 30 20 36 20 6 0 11 5 11 10 0 5 3 9 8 9 20
-3 32 2 26 13 -4 7 -3 8 5 4 6 -4 23 -1 36 8 13 9 33 16 43 16 10 0 22 3 26 7
3 4 14 8 24 9 44 5 127 16 129 18 1 1 50 -1 180 -7z"/>
<path d="M1267 1704 c-3 -3 -22 -6 -41 -6 -20 0 -39 -4 -42 -9 -3 -5 -10 -7
-15 -4 -5 4 -9 1 -9 -5 0 -6 -3 -9 -7 -7 -13 8 -55 -12 -48 -23 3 -5 0 -7 -8
-4 -17 6 -130 -103 -121 -117 3 -5 0 -9 -6 -9 -7 0 -9 -7 -6 -16 3 -8 2 -12
-4 -9 -9 6 -14 -8 -11 -27 0 -5 -4 -8 -10 -8 -6 0 -9 -9 -6 -20 3 -11 1 -20
-5 -20 -5 0 -8 -12 -7 -28 2 -15 0 -33 -4 -40 -5 -6 -5 -18 -1 -24 5 -7 7 -28
5 -46 -1 -20 1 -32 7 -28 5 3 7 -5 4 -19 -2 -15 0 -25 7 -25 6 0 10 -3 9 -7
-4 -15 14 -53 22 -48 4 3 7 -3 6 -13 0 -9 4 -16 11 -15 7 2 10 -4 7 -12 -4 -9
2 -18 17 -24 13 -5 20 -10 14 -10 -5 -1 6 -15 25 -31 19 -17 41 -28 48 -25 7
3 11 1 8 -4 -7 -11 22 -23 36 -14 6 3 8 1 4 -5 -7 -12 29 -26 44 -17 5 3 10 1
10 -5 0 -6 12 -11 28 -9 15 1 36 -2 46 -6 12 -5 21 -5 23 1 2 6 19 8 38 6 22
-3 35 0 35 7 0 7 4 10 9 6 13 -7 92 25 86 35 -3 4 3 7 13 6 9 0 16 4 15 10 -1
7 5 11 15 10 9 0 16 5 14 12 -1 8 1 11 6 8 5 -3 18 5 29 17 28 31 66 97 56 97
-4 0 -2 4 5 9 7 4 14 14 15 22 2 8 6 20 10 26 15 24 9 168 -9 214 -28 71 -65
124 -78 111 -4 -3 -4 1 -1 10 7 18 -47 63 -60 50 -5 -4 -5 -2 -2 4 6 11 -19
29 -35 26 -5 -1 -8 3 -8 9 0 5 -4 7 -10 4 -5 -3 -10 -2 -10 3 0 13 -62 29
-108 28 -22 0 -38 2 -35 7 5 8 -11 10 -20 1z"/>
</g>
</svg>
